<svg xmlns="http://www.w3.org/2000/svg" viewBox="0 0 90.31 45.16"><defs><style>.cls-1{fill:#f2f2f2;}</style></defs><title>ferry</title><g id="圖層_2" data-name="圖層 2"><g id="圖層_1-2" data-name="圖層 1"><path class="cls-1" d="M25.59,12a1.51,1.51,0,0,0-1.21.6L11.29,30.1H1.51A1.51,1.51,0,0,0,0,31.61a1.54,1.54,0,0,0,.3.9l9,12a1.52,1.52,0,0,0,1.21.61H85.8A1.51,1.51,0,0,0,87.26,44l3-12.05a1.5,1.5,0,0,0-1.1-1.82,1.49,1.49,0,0,0-.36,0H85.47L81.24,13.18A1.51,1.51,0,0,0,79.78,12H72.25V1.51A1.5,1.5,0,0,0,70.74,0h-9a1.5,1.5,0,0,0-1.5,1.51V12h-9V1.51A1.51,1.51,0,0,0,49.67,0h-9a1.5,1.5,0,0,0-1.5,1.51V12H31.61V9h3V6h-9V9h3v3Zm55.27,12H79.78v3h1.83l.75,3H15.05l2.26-3h5.27v-3h-3l2.26-3H28.6v-3H24.08l2.26-3H78.6ZM69.24,3V6h-6V3Zm-6,6h6v3h-6Zm-15-6V6h-6V3Zm-6,6h6v3h-6Z"/><path class="cls-1" d="M25.59,24.08h3v3h-3Z"/><path class="cls-1" d="M31.61,24.08h3v3h-3Z"/><path class="cls-1" d="M37.63,24.08h3v3h-3Z"/><path class="cls-1" d="M43.65,24.08h3v3h-3Z"/><path class="cls-1" d="M49.67,24.08h3v3h-3Z"/><path class="cls-1" d="M55.69,24.08h3v3h-3Z"/><path class="cls-1" d="M61.71,24.08h3v3h-3Z"/><path class="cls-1" d="M67.73,24.08h3v3h-3Z"/><path class="cls-1" d="M73.76,24.08h3v3h-3Z"/><path class="cls-1" d="M31.61,18.06h3v3h-3Z"/><path class="cls-1" d="M37.63,18.06h3v3h-3Z"/><path class="cls-1" d="M43.65,18.06h3v3h-3Z"/><path class="cls-1" d="M49.67,18.06h3v3h-3Z"/><path class="cls-1" d="M55.69,18.06h3v3h-3Z"/><path class="cls-1" d="M61.71,18.06h3v3h-3Z"/><path class="cls-1" d="M67.73,18.06h3v3h-3Z"/><path class="cls-1" d="M73.76,18.06h3v3h-3Z"/><path class="cls-1" d="M13.55,36.12h3v3h-3Z"/><path class="cls-1" d="M19.57,36.12h3v3h-3Z"/><path class="cls-1" d="M25.59,36.12h3v3h-3Z"/><path class="cls-1" d="M31.61,36.12h3v3h-3Z"/><path class="cls-1" d="M55.69,36.12h3v3h-3Z"/><path class="cls-1" d="M61.71,36.12h3v3h-3Z"/><path class="cls-1" d="M73.76,36.12h3v3h-3Z"/><path class="cls-1" d="M79.78,36.12h3v3h-3Z"/><path class="cls-1" d="M43.65,36.12h3v3h-3Z"/><path class="cls-1" d="M49.67,36.12h3v3h-3Z"/></g></g></svg>